<mxfile host="www.draw.io" modified="2019-10-21T09:34:06.618Z" agent="Mozilla/5.0 (Windows NT 6.1; Win64; x64) AppleWebKit/537.36 (KHTML, like Gecko) Chrome/77.0.3865.120 Safari/537.36" etag="S57AT4xHXwabJdgJVfwD" version="12.1.3" type="github" pages="1">
  <diagram id="6a731a19-8d31-9384-78a2-239565b7b9f0" name="Page-1">
    <mxGraphModel dx="1005" dy="515" grid="1" gridSize="10" guides="1" tooltips="1" connect="1" arrows="1" fold="1" page="1" pageScale="1" pageWidth="1169" pageHeight="827" background="#ffffff" math="0" shadow="0">
      <root>
        <mxCell id="0"/>
        <mxCell id="1" parent="0"/>
        <mxCell id="dxibo1Gv-2dLAtyBNZos-57" value="" style="edgeStyle=orthogonalEdgeStyle;rounded=0;orthogonalLoop=1;jettySize=auto;html=1;" edge="1" parent="1" source="dxibo1Gv-2dLAtyBNZos-55" target="dxibo1Gv-2dLAtyBNZos-56">
          <mxGeometry relative="1" as="geometry"/>
        </mxCell>
        <mxCell id="dxibo1Gv-2dLAtyBNZos-55" value="Start" style="ellipse;whiteSpace=wrap;html=1;" vertex="1" parent="1">
          <mxGeometry x="80" y="20" width="120" height="80" as="geometry"/>
        </mxCell>
        <mxCell id="dxibo1Gv-2dLAtyBNZos-59" value="" style="edgeStyle=orthogonalEdgeStyle;rounded=0;orthogonalLoop=1;jettySize=auto;html=1;" edge="1" parent="1" source="dxibo1Gv-2dLAtyBNZos-56" target="dxibo1Gv-2dLAtyBNZos-58">
          <mxGeometry relative="1" as="geometry"/>
        </mxCell>
        <mxCell id="dxibo1Gv-2dLAtyBNZos-56" value="Variable X, Variable Y, Variable Z" style="shape=hexagon;perimeter=hexagonPerimeter2;whiteSpace=wrap;html=1;" vertex="1" parent="1">
          <mxGeometry x="80" y="130" width="120" height="80" as="geometry"/>
        </mxCell>
        <mxCell id="dxibo1Gv-2dLAtyBNZos-61" value="" style="edgeStyle=orthogonalEdgeStyle;rounded=0;orthogonalLoop=1;jettySize=auto;html=1;" edge="1" parent="1" source="dxibo1Gv-2dLAtyBNZos-58" target="dxibo1Gv-2dLAtyBNZos-60">
          <mxGeometry relative="1" as="geometry"/>
        </mxCell>
        <mxCell id="dxibo1Gv-2dLAtyBNZos-58" value="InputNilai X, Y, Z" style="shape=parallelogram;perimeter=parallelogramPerimeter;whiteSpace=wrap;html=1;" vertex="1" parent="1">
          <mxGeometry x="80" y="240" width="120" height="60" as="geometry"/>
        </mxCell>
        <mxCell id="dxibo1Gv-2dLAtyBNZos-63" value="" style="edgeStyle=orthogonalEdgeStyle;rounded=0;orthogonalLoop=1;jettySize=auto;html=1;" edge="1" parent="1" source="dxibo1Gv-2dLAtyBNZos-60" target="dxibo1Gv-2dLAtyBNZos-62">
          <mxGeometry relative="1" as="geometry"/>
        </mxCell>
        <mxCell id="dxibo1Gv-2dLAtyBNZos-69" value="" style="edgeStyle=orthogonalEdgeStyle;rounded=0;orthogonalLoop=1;jettySize=auto;html=1;" edge="1" parent="1" source="dxibo1Gv-2dLAtyBNZos-60" target="dxibo1Gv-2dLAtyBNZos-68">
          <mxGeometry relative="1" as="geometry"/>
        </mxCell>
        <mxCell id="dxibo1Gv-2dLAtyBNZos-60" value="Jika X &amp;gt; Y&lt;br&gt;AND&lt;br&gt;X &amp;gt; Z" style="rhombus;whiteSpace=wrap;html=1;" vertex="1" parent="1">
          <mxGeometry x="100" y="340" width="80" height="80" as="geometry"/>
        </mxCell>
        <mxCell id="dxibo1Gv-2dLAtyBNZos-65" value="" style="edgeStyle=orthogonalEdgeStyle;rounded=0;orthogonalLoop=1;jettySize=auto;html=1;" edge="1" parent="1" source="dxibo1Gv-2dLAtyBNZos-62" target="dxibo1Gv-2dLAtyBNZos-64">
          <mxGeometry relative="1" as="geometry"/>
        </mxCell>
        <mxCell id="dxibo1Gv-2dLAtyBNZos-67" value="" style="edgeStyle=orthogonalEdgeStyle;rounded=0;orthogonalLoop=1;jettySize=auto;html=1;" edge="1" parent="1" source="dxibo1Gv-2dLAtyBNZos-62" target="dxibo1Gv-2dLAtyBNZos-66">
          <mxGeometry relative="1" as="geometry"/>
        </mxCell>
        <mxCell id="dxibo1Gv-2dLAtyBNZos-62" value="Jika Y &amp;gt;X&lt;br&gt;AND&lt;br&gt;Y &amp;gt; Z&amp;nbsp;" style="rhombus;whiteSpace=wrap;html=1;" vertex="1" parent="1">
          <mxGeometry x="100" y="440" width="80" height="80" as="geometry"/>
        </mxCell>
        <mxCell id="dxibo1Gv-2dLAtyBNZos-80" value="" style="edgeStyle=orthogonalEdgeStyle;rounded=0;orthogonalLoop=1;jettySize=auto;html=1;" edge="1" parent="1" source="dxibo1Gv-2dLAtyBNZos-64">
          <mxGeometry relative="1" as="geometry">
            <mxPoint x="322" y="580" as="targetPoint"/>
          </mxGeometry>
        </mxCell>
        <mxCell id="dxibo1Gv-2dLAtyBNZos-82" value="" style="edgeStyle=orthogonalEdgeStyle;rounded=0;orthogonalLoop=1;jettySize=auto;html=1;" edge="1" parent="1" source="dxibo1Gv-2dLAtyBNZos-64" target="dxibo1Gv-2dLAtyBNZos-81">
          <mxGeometry relative="1" as="geometry"/>
        </mxCell>
        <mxCell id="dxibo1Gv-2dLAtyBNZos-64" value="X &amp;gt; Y" style="rhombus;whiteSpace=wrap;html=1;" vertex="1" parent="1">
          <mxGeometry x="100" y="540" width="80" height="80" as="geometry"/>
        </mxCell>
        <mxCell id="dxibo1Gv-2dLAtyBNZos-77" value="" style="edgeStyle=orthogonalEdgeStyle;rounded=0;orthogonalLoop=1;jettySize=auto;html=1;" edge="1" parent="1" source="dxibo1Gv-2dLAtyBNZos-66" target="dxibo1Gv-2dLAtyBNZos-75">
          <mxGeometry relative="1" as="geometry"/>
        </mxCell>
        <mxCell id="dxibo1Gv-2dLAtyBNZos-66" value="X &amp;gt; Z" style="rhombus;whiteSpace=wrap;html=1;" vertex="1" parent="1">
          <mxGeometry x="220" y="440" width="80" height="80" as="geometry"/>
        </mxCell>
        <mxCell id="dxibo1Gv-2dLAtyBNZos-68" value="X &amp;gt; Y" style="rhombus;whiteSpace=wrap;html=1;" vertex="1" parent="1">
          <mxGeometry x="220" y="340" width="80" height="80" as="geometry"/>
        </mxCell>
        <mxCell id="dxibo1Gv-2dLAtyBNZos-70" value="Output A, B, C" style="shape=parallelogram;perimeter=parallelogramPerimeter;whiteSpace=wrap;html=1;" vertex="1" parent="1">
          <mxGeometry x="340" y="290" width="120" height="40" as="geometry"/>
        </mxCell>
        <mxCell id="dxibo1Gv-2dLAtyBNZos-71" value="Output X, Z, Y" style="shape=parallelogram;perimeter=parallelogramPerimeter;whiteSpace=wrap;html=1;" vertex="1" parent="1">
          <mxGeometry x="330" y="360" width="120" height="40" as="geometry"/>
        </mxCell>
        <mxCell id="dxibo1Gv-2dLAtyBNZos-72" value="" style="edgeStyle=elbowEdgeStyle;elbow=horizontal;endArrow=classic;html=1;exitX=0.5;exitY=0;exitDx=0;exitDy=0;entryX=0;entryY=0.25;entryDx=0;entryDy=0;" edge="1" parent="1" source="dxibo1Gv-2dLAtyBNZos-68" target="dxibo1Gv-2dLAtyBNZos-70">
          <mxGeometry width="50" height="50" relative="1" as="geometry">
            <mxPoint x="250" y="380" as="sourcePoint"/>
            <mxPoint x="300" y="330" as="targetPoint"/>
            <Array as="points">
              <mxPoint x="260" y="340"/>
            </Array>
          </mxGeometry>
        </mxCell>
        <mxCell id="dxibo1Gv-2dLAtyBNZos-73" value="" style="edgeStyle=elbowEdgeStyle;elbow=horizontal;endArrow=classic;html=1;exitX=1;exitY=0.5;exitDx=0;exitDy=0;entryX=0;entryY=0.5;entryDx=0;entryDy=0;" edge="1" parent="1" source="dxibo1Gv-2dLAtyBNZos-68" target="dxibo1Gv-2dLAtyBNZos-71">
          <mxGeometry width="50" height="50" relative="1" as="geometry">
            <mxPoint x="320" y="420" as="sourcePoint"/>
            <mxPoint x="370" y="370" as="targetPoint"/>
            <Array as="points"/>
          </mxGeometry>
        </mxCell>
        <mxCell id="dxibo1Gv-2dLAtyBNZos-74" value="Output Y, X, Z" style="shape=parallelogram;perimeter=parallelogramPerimeter;whiteSpace=wrap;html=1;" vertex="1" parent="1">
          <mxGeometry x="330" y="410" width="120" height="40" as="geometry"/>
        </mxCell>
        <mxCell id="dxibo1Gv-2dLAtyBNZos-75" value="Output Y, Z, X" style="shape=parallelogram;perimeter=parallelogramPerimeter;whiteSpace=wrap;html=1;" vertex="1" parent="1">
          <mxGeometry x="320" y="460" width="120" height="40" as="geometry"/>
        </mxCell>
        <mxCell id="dxibo1Gv-2dLAtyBNZos-76" value="" style="edgeStyle=elbowEdgeStyle;elbow=horizontal;endArrow=classic;html=1;exitX=0.5;exitY=0;exitDx=0;exitDy=0;entryX=0;entryY=0.25;entryDx=0;entryDy=0;" edge="1" parent="1" source="dxibo1Gv-2dLAtyBNZos-66" target="dxibo1Gv-2dLAtyBNZos-74">
          <mxGeometry width="50" height="50" relative="1" as="geometry">
            <mxPoint x="200" y="460" as="sourcePoint"/>
            <mxPoint x="250" y="410" as="targetPoint"/>
            <Array as="points">
              <mxPoint x="260" y="430"/>
            </Array>
          </mxGeometry>
        </mxCell>
        <mxCell id="dxibo1Gv-2dLAtyBNZos-78" value="Output Z, X, Y" style="shape=parallelogram;perimeter=parallelogramPerimeter;whiteSpace=wrap;html=1;" vertex="1" parent="1">
          <mxGeometry x="310" y="560" width="120" height="40" as="geometry"/>
        </mxCell>
        <mxCell id="dxibo1Gv-2dLAtyBNZos-84" value="" style="edgeStyle=orthogonalEdgeStyle;rounded=0;orthogonalLoop=1;jettySize=auto;html=1;" edge="1" parent="1" source="dxibo1Gv-2dLAtyBNZos-81" target="dxibo1Gv-2dLAtyBNZos-83">
          <mxGeometry relative="1" as="geometry"/>
        </mxCell>
        <mxCell id="dxibo1Gv-2dLAtyBNZos-81" value="Output Z, Y, X" style="shape=parallelogram;perimeter=parallelogramPerimeter;whiteSpace=wrap;html=1;" vertex="1" parent="1">
          <mxGeometry x="80" y="670" width="120" height="40" as="geometry"/>
        </mxCell>
        <mxCell id="dxibo1Gv-2dLAtyBNZos-83" value="End" style="ellipse;whiteSpace=wrap;html=1;" vertex="1" parent="1">
          <mxGeometry x="80" y="740" width="120" height="80" as="geometry"/>
        </mxCell>
        <mxCell id="dxibo1Gv-2dLAtyBNZos-85" value="" style="edgeStyle=elbowEdgeStyle;elbow=horizontal;endArrow=classic;html=1;exitX=1;exitY=0.5;exitDx=0;exitDy=0;entryX=1;entryY=0.5;entryDx=0;entryDy=0;" edge="1" parent="1" source="dxibo1Gv-2dLAtyBNZos-70" target="dxibo1Gv-2dLAtyBNZos-83">
          <mxGeometry width="50" height="50" relative="1" as="geometry">
            <mxPoint x="640" y="580" as="sourcePoint"/>
            <mxPoint x="690" y="530" as="targetPoint"/>
            <Array as="points">
              <mxPoint x="480" y="540"/>
            </Array>
          </mxGeometry>
        </mxCell>
        <mxCell id="dxibo1Gv-2dLAtyBNZos-86" value="" style="edgeStyle=elbowEdgeStyle;elbow=horizontal;endArrow=classic;html=1;exitX=1;exitY=0.5;exitDx=0;exitDy=0;entryX=1;entryY=0.5;entryDx=0;entryDy=0;" edge="1" parent="1" source="dxibo1Gv-2dLAtyBNZos-71" target="dxibo1Gv-2dLAtyBNZos-83">
          <mxGeometry width="50" height="50" relative="1" as="geometry">
            <mxPoint x="570" y="460" as="sourcePoint"/>
            <mxPoint x="620" y="410" as="targetPoint"/>
            <Array as="points">
              <mxPoint x="480" y="590"/>
            </Array>
          </mxGeometry>
        </mxCell>
        <mxCell id="dxibo1Gv-2dLAtyBNZos-87" value="" style="edgeStyle=elbowEdgeStyle;elbow=horizontal;endArrow=classic;html=1;exitX=1;exitY=0.5;exitDx=0;exitDy=0;entryX=1;entryY=0.5;entryDx=0;entryDy=0;" edge="1" parent="1" source="dxibo1Gv-2dLAtyBNZos-74" target="dxibo1Gv-2dLAtyBNZos-83">
          <mxGeometry width="50" height="50" relative="1" as="geometry">
            <mxPoint x="-50" y="700" as="sourcePoint"/>
            <mxPoint y="650" as="targetPoint"/>
            <Array as="points">
              <mxPoint x="480" y="600"/>
            </Array>
          </mxGeometry>
        </mxCell>
        <mxCell id="dxibo1Gv-2dLAtyBNZos-88" value="" style="edgeStyle=elbowEdgeStyle;elbow=horizontal;endArrow=classic;html=1;exitX=1;exitY=0.5;exitDx=0;exitDy=0;entryX=1;entryY=0.5;entryDx=0;entryDy=0;" edge="1" parent="1" source="dxibo1Gv-2dLAtyBNZos-75" target="dxibo1Gv-2dLAtyBNZos-83">
          <mxGeometry width="50" height="50" relative="1" as="geometry">
            <mxPoint x="610" y="550" as="sourcePoint"/>
            <mxPoint x="660" y="500" as="targetPoint"/>
            <Array as="points">
              <mxPoint x="480" y="640"/>
            </Array>
          </mxGeometry>
        </mxCell>
        <mxCell id="dxibo1Gv-2dLAtyBNZos-89" value="" style="edgeStyle=elbowEdgeStyle;elbow=horizontal;endArrow=classic;html=1;exitX=1;exitY=0.5;exitDx=0;exitDy=0;entryX=1;entryY=0.5;entryDx=0;entryDy=0;" edge="1" parent="1" source="dxibo1Gv-2dLAtyBNZos-78" target="dxibo1Gv-2dLAtyBNZos-83">
          <mxGeometry width="50" height="50" relative="1" as="geometry">
            <mxPoint x="600" y="650" as="sourcePoint"/>
            <mxPoint x="650" y="600" as="targetPoint"/>
            <Array as="points">
              <mxPoint x="480" y="680"/>
            </Array>
          </mxGeometry>
        </mxCell>
      </root>
    </mxGraphModel>
  </diagram>
</mxfile>
